# AST/ASF file generated using VICON BodyLanguage
# -----------------------------------------------
:version 1.10
:name VICON
:units
  mass 1.0
  length 0.45
  angle deg
:documentation
   .ast/.asf automatically generated from VICON data using
   VICON BodyBuilder and BodyLanguage model FoxedUp or BRILLIANT.MOD
:root
   order TX TY TZ RX RY RZ
   axis XYZ
   position 0 0 0  
   orientation 0 0 0 
:bonedata
  begin
     id 1 
     name lhipjoint
     direction 0.645422 -0.672597 0.361999 
     length 2.39934 
     axis 0 0 0  XYZ
  end
  begin
     id 2 
     name lfemur
     direction 0.34202 -0.939693 0  
     length 6.58112  
     axis 0 0 20  XYZ
    dof rx ry rz
    limits (-160.0 20.0)
           (-70.0 70.0)
           (-60.0 70.0)
  end
  begin
     id 3 
     name ltibia
     direction 0.34202 -0.939693 0   
     length 7.02673   
     axis 0 0 20   XYZ
    dof rx
    limits (-10.0 170.0)
  end
  begin
     id 4 
     name lfoot
     direction 0.0835106 -0.229444 0.969733   
     length 2.08772   
     axis -90 7.62852e-016 20   XYZ
    dof rx rz
    limits (-45.0 90.0)
           (-70.0 20.0)
  end
  begin
     id 5 
     name ltoes
     direction 1.5358e-011 -4.21925e-011 1   
     length 1.04844   
     axis -90 7.62852e-016 20   XYZ
    dof rx
    limits (-90.0 20.0)
  end
  begin
     id 6 
     name rhipjoint
     direction -0.644959 -0.672941 0.362185   
     length 2.39812  
     axis 0 0 0  XYZ 
  end
  begin
     id 7 
     name rfemur
     direction -0.34202 -0.939693 0   
     length 6.67015   
     axis 0 0 -20   XYZ
    dof rx ry rz
    limits (-160.0 20.0)
           (-70.0 70.0)
           (-70.0 60.0)
  end
  begin
     id 8 
     name rtibia
     direction -0.34202 -0.939693 0   
     length 7.35735   
     axis 0 0 -20   XYZ
    dof rx
    limits (-10.0 170.0)
 end
 begin
     id 9 
     name rfoot
     direction -0.0670769 -0.184292 0.98058   
     length 2.25469  
     axis -90 -7.62852e-016 -20   XYZ
    dof rx rz
    limits (-45.0 90.0)
           (-20.0 70.0)
  end
  begin
     id 10 
     name rtoes
     direction -1.53575e-011 -4.21908e-011 1   
     length 1.13399   
     axis -90 -7.62852e-016 -20   XYZ
    dof rx
    limits (-90.0 20.0)
  end
  begin
     id 11 
     name lowerback
     direction -0.0188328 0.993434 -0.112847   
     length 2.27656   
     axis 0 0 0   XYZ
    dof rx ry rz
    limits (-20.0 45.0)
           (-30.0 30.0)
           (-30.0 30.0)
  end
  begin
     id 12 
     name upperback
     direction 0.00983139 0.998968 -0.04435   
     length 2.28631   
     axis 0 0 0   XYZ
    dof rx ry rz
    limits (-20.0 45.0)
           (-30.0 30.0)
           (-30.0 30.0)
  end
  begin
     id 13 
     name thorax
     direction 0.0177718 0.999807 0.00833073   
     length 2.30999   
     axis 0 0 0   XYZ
    dof rx ry rz
    limits (-20.0 45.0)
           (-30.0 30.0)
           (-30.0 30.0)
  end
  begin
     id 14 
     name lowerneck
     direction -0.0835025 0.993181 0.0813558   
     length 1.39447   
     axis 0 0 0   XYZ
    dof rx ry rz
    limits (-20.0 45.0)
           (-30.0 30.0)
           (-30.0 30.0)
  end
  begin
     id 15 
     name upperneck
     direction 0.210059 0.976535 0.0474817   
     length 1.39882   
     axis 0 0 0   XYZ
    dof rx ry rz
    limits (-20.0 45.0)
           (-30.0 30.0)
           (-30.0 30.0)
  end
  begin
     id 16
     name head
     direction 0.0780891 0.996944 -0.00207154  
     length 1.41828  
     axis 0 0 0   XYZ
    dof rx ry rz
    limits (-20.0 45.0)
           (-30.0 30.0)
           (-30.0 30.0)
  end
  begin
     id 17 
     name lclavicle
     direction 0.982414 0.166355 -0.0847829  
     length 3.57922  
     axis 0 0 0   XYZ
    dof ry rz
    limits (-20.0 10.0)
           (0.0 20.0)
  end
  begin
     id 18 
     name lhumerus
     direction 1 -4.48975e-011 5.47647e-028   
     length 4.76405   
     axis -180 -30 -90   XYZ
    dof rx ry rz
    limits (-60.0 90.0)
           (-90.0 90.0)
           (-90.0 90.0)
  end
  begin
     id 19
     name lradius
     direction 1 -4.48949e-011 -8.32142e-027   
     length 3.13759   
     axis -180 -30 -90   XYZ
    dof rx
    limits (-10.0 170.0)
  end
  begin
     id 20
     name lwrist
     direction 1 -4.48978e-011 -1.32705e-026   
     length 1.56879   
     axis 9.60836e-015 90 90   XYZ
    dof ry
    limits (-180.0 0.0)
 end
  begin
     id 21 
     name lhand
     direction 1 -4.48975e-011 -2.65409e-026   
     length 0.732262   
     axis 1.69354e-014 90 90   XYZ
    dof rx rz
    limits (-90.0 90.0)
           (-45.0 45.0)
  end
  begin
     id 22 
     name lfingers
     direction 1 -4.48923e-011 -5.30819e-026   
     length 0.590368   
     axis 3.38708e-014 90 90   XYZ
    dof rx
    limits (0.0 90.0)
  end
  begin
     id 23
     name lthumb
     direction 0.707107 -6.34914e-011 0.707107   
     length 0.847654   
     axis -90 45 2.85299e-015   XYZ
    dof rx rz
    limits (-45.0 45.0)
           (-45.0 45.0)
  end
  begin
     id 24 
     name rclavicle
     direction -0.963658 0.245183 -0.106063   
     length 3.43472  
     axis 0 0 0   XYZ 
    dof ry rz
    limits (-10.0 20.0)
           (-20.0 0.0)
  end
  begin
     id 25 
     name rhumerus
     direction -1 -4.48963e-011 -1.64784e-027  
     length 5.10161   
     axis -180 30 90   XYZ
    dof rx ry rz
    limits (-90.0 60.0)
           (-90.0 90.0)
           (-90.0 90.0)
  end
  begin
     id 26 
     name rradius
     direction -1 -4.48969e-011 -2.87943e-027   
     length 3.23267   
     axis -180 30 90   XYZ
    dof rx
    limits (-10.0 170.0)
  end
  begin
     id 27 
     name rwrist
     direction -1 -4.48982e-011 -1.32705e-026   
     length 1.61633   
     axis 9.60836e-015 -90 -90   XYZ
    dof ry
    limits (-180.0 0.0)
  end
  begin
     id 28
     name rhand
     direction -1 -4.48963e-011 -2.65409e-026   
     length 0.702   
     axis 1.69354e-014 -90 -90   XYZ
    dof rx rz
    limits (-90.0 90.0)
           (-45.0 45.0)
  end
  begin
     id 29
     name rfingers
     direction -1 -4.48934e-011 -5.30819e-026   
     length 0.565971   
     axis 3.38708e-014 -90 -90   XYZ
    dof rx
    limits (0.0 90.0)
  end
  begin
     id 30
     name rthumb
     direction -0.707107 -6.34908e-011 0.707107   
     length 0.812624   
     axis -90 -45 -2.85299e-015   XYZ
    dof rx rz
    limits (-45.0 45.0)
           (-45.0 45.0)
  end
:hierarchy
  begin
    root lhipjoint rhipjoint lowerback
    lhipjoint lfemur
    lfemur ltibia
    ltibia lfoot
    lfoot ltoes
    rhipjoint rfemur
    rfemur rtibia
    rtibia rfoot
    rfoot rtoes
    lowerback upperback
    upperback thorax
    thorax lowerneck lclavicle rclavicle
    lowerneck upperneck
    upperneck head
    lclavicle lhumerus
    lhumerus lradius
    lradius lwrist
    lwrist lhand lthumb
    lhand lfingers
    rclavicle rhumerus
    rhumerus rradius
    rradius rwrist
    rwrist rhand rthumb
    rhand rfingers
  end

#!OML:ASF \\sashay\E\basketball\basketball\Project 1\Capture day 1\Session 1\Subject.ASF
:FULLY-SPECIFIED
:DEGREES
66
root -9.64769 14.6876 -7.13013 12.8597 -53.019 -6.40668
lowerback 25.83 3.05157 -3.81589
upperback 6.60148 2.41056 -2.20464
thorax -7.04943 1.05102 -0.971086
lowerneck -12.0088 13.3998 -12.7471
upperneck -13.2941 19.2095 -0.176355
head -3.39435 10.1647 1.75724
rclavicle 3.73715e-014 -1.74931e-014
rhumerus -46.6473 -10.9666 -59.0166
rradius 64.8136
rwrist -28.3648
rhand -29.5467 34.4998
rfingers 7.12502
rthumb -2.87971 4.53952
lclavicle 3.73715e-014 -1.74931e-014
lhumerus 18.1988 45.874 66.9988
lradius 124.057
lwrist 30.5419
lhand 16.0526 45.9219
lfingers 7.12502
lthumb 40.8415 70.8884
rfemur -26.761 -27.3891 10.7002
rtibia 52.3879
rfoot -14.4015 -14.6097
rtoes -50.9382
lfemur -20.7361 12.689 11.5332
ltibia 67.5303
lfoot -4.4932 7.78487
ltoes -20.0512
67
root -9.40927 14.6728 -7.08571 12.5888 -48.6557 -5.43507
lowerback 25.6445 2.60971 -4.11626
upperback 6.56335 1.82626 -2.0536
thorax -7.00406 0.789933 -0.446601
lowerneck -11.8716 12.8408 -12.6896
upperneck -12.9347 18.5403 0.742645
head -3.33369 9.80825 2.04353
rclavicle 1.28017e-013 1.66979e-014
rhumerus -44.5562 -11.5614 -58.2317
rradius 64.4535
rwrist -28.555
rhand -29.398 33.8343
rfingers 7.12502
rthumb -2.73607 3.87213
lclavicle 1.28017e-013 1.66979e-014
lhumerus 20.3344 42.5198 69.1038
lradius 126.641
lwrist 26.392
lhand 14.0283 45.3645
lfingers 7.12502
lthumb 38.9362 70.9027
rfemur -25.6308 -27.1307 9.29002
rtibia 51.5408
rfoot -13.8341 -15.5336
rtoes -50.8913
lfemur -22.824 13.6098 10.6375
ltibia 66.1712
lfoot -3.05747 5.91853
ltoes -24.4518
68
root -9.18053 14.6695 -7.02157 12.7746 -44.448 -4.85705
lowerback 25.4031 2.07733 -4.23186
upperback 6.42125 1.16517 -2.00797
thorax -7.0271 0.492554 -0.123119
lowerneck -11.6676 12.3914 -12.3137
upperneck -12.7165 17.9701 1.60713
head -3.29387 9.49212 2.26263
rclavicle 5.40694e-014 -3.10104e-014
rhumerus -42.4279 -12.3797 -57.8362
rradius 64.1395
rwrist -28.8349
rhand -29.3108 33.1349
rfingers 7.12502
rthumb -2.65187 3.17168
lclavicle 5.40694e-014 -3.10104e-014
lhumerus 21.6738 38.5685 69.9774
lradius 129.014
lwrist 21.4095
lhand 13.034 45.1008
lfingers 7.12502
lthumb 37.998 70.9005
rfemur -24.4088 -26.4268 8.09293
rtibia 50.4692
rfoot -13.1572 -16.6651
rtoes -50.1064
lfemur -24.7778 14.7461 9.54391
ltibia 64.8458
lfoot -1.69473 4.07315
ltoes -27.4541
69
root -8.93189 14.6599 -6.93237 12.7633 -40.5817 -3.92059
lowerback 25.265 1.53817 -4.36741
upperback 6.24676 0.448117 -2.27761
thorax -7.12782 0.167442 -0.12263
lowerneck -11.5423 12.013 -11.8464
upperneck -12.5985 17.5061 2.58064
head -3.27911 9.22685 2.49939
rclavicle -9.62118e-014 8.34896e-014
rhumerus -40.3929 -13.4669 -57.8245
rradius 64.0317
rwrist -29.4895
rhand -29.2433 32.5931
rfingers 7.12502
rthumb -2.58667 2.62899
lclavicle -9.62118e-014 8.34896e-014
lhumerus 22.5892 34.1243 69.9345
lradius 131.039
lwrist 16.0511
lhand 12.3328 44.5739
lfingers 7.12502
lthumb 37.3354 70.5509
rfemur -23.1194 -25.8128 6.47769
rtibia 49.3271
rfoot -11.804 -18.0068
rtoes -49.5473
lfemur -26.3808 15.7266 7.72755
ltibia 63.6305
lfoot -0.770338 2.70453
ltoes -25.279
70
root -8.69234 14.6408 -6.84247 13.0893 -36.8832 -3.6589
lowerback 25.1296 1.11479 -4.50309
upperback 6.19868 -0.0904398 -2.21074
thorax -7.09541 -0.0769634 0.193088
lowerneck -11.554 11.5842 -11.7385
upperneck -12.5688 17.0091 3.42402
head -3.2867 8.96516 2.75253
rclavicle 3.4191e-014 1.51076e-014
rhumerus -38.2787 -14.5835 -57.7173
rradius 64.2454
rwrist -30.5058
rhand -29.2715 32.0606
rfingers 7.12502
rthumb -2.61389 2.09691
lclavicle 3.4191e-014 1.51076e-014
lhumerus 23.0369 29.4142 69.7782
lradius 132.807
lwrist 10.5598
lhand 12.3379 43.9766
lfingers 7.12502
lthumb 37.3402 69.9524
rfemur -21.6899 -24.8767 5.47464
rtibia 48.1903
rfoot -10.1804 -19.5476
rtoes -48.9481
lfemur -27.5586 16.9013 6.31502
ltibia 62.5682
lfoot -4.27505 1.38739
ltoes -33.4509
71
root -8.4515 14.6177 -6.74373 13.5619 -33.2386 -3.61229
lowerback 24.9391 0.727029 -4.57257
upperback 6.21549 -0.545081 -1.95228
thorax -6.95995 -0.285312 0.653792
lowerneck -11.847 11.0265 -11.7855
upperneck -12.3476 16.3542 4.05669
head -3.17283 8.6347 2.99709
rclavicle 1.03368e-014 -3.89618e-014
rhumerus -36.1569 -15.7444 -57.5265
rradius 64.6735
rwrist -31.7731
rhand -28.4285 32.4915
rfingers 7.12502
rthumb -1.79971 2.51933
lclavicle 1.03368e-014 -3.89618e-014
lhumerus 23.1277 24.0859 69.4643
lradius 133.989
lwrist 5.29648
lhand 12.2776 43.3791
lfingers 7.12502
lthumb 37.2832 69.3698
rfemur -20.242 -24.0461 4.72224
rtibia 47.0631
rfoot -8.08212 -21.0549
rtoes -48.9099
lfemur -28.5964 18.9124 4.87948
ltibia 61.6377
lfoot -7.98854 -0.011391
ltoes -43.8735
72
root -8.20193 14.6025 -6.62852 14.0803 -29.6332 -3.42058
lowerback 24.6891 0.247613 -4.27602
upperback 6.18245 -1.05471 -2.01123
thorax -6.85558 -0.524162 0.570269
lowerneck -12.3478 10.3149 -11.6285
upperneck -11.932 15.5042 4.93025
head -2.94681 8.19683 3.31028
rclavicle -1.11319e-014 6.20208e-014
rhumerus -34.3723 -17.188 -57.7838
rradius 65.2436
rwrist -32.9835
rhand -28.2225 33.0518
rfingers 7.12502
rthumb -1.6008 3.07806
lclavicle -1.11319e-014 6.20208e-014
lhumerus 23.3999 17.8664 67.9831
lradius 133.812
lwrist 1.16589
lhand 10.3664 42.4633
lfingers 7.12502
lthumb 35.4737 68.9074
rfemur -18.8143 -23.5548 3.90879
rtibia 45.9009
rfoot -6.53946 -22.192
rtoes -47.5785
lfemur -29.6588 20.302 3.08959
ltibia 60.7336
lfoot -12.0644 0.501205
ltoes -39.7661
73
root -7.95401 14.616 -6.50288 14.4309 -26.1539 -3.16119
lowerback 24.7165 -0.155464 -3.98346
upperback 6.102 -1.49653 -2.15388
thorax -6.95382 -0.727428 0.377963
lowerneck -12.9442 9.45765 -11.3789
upperneck -11.34 14.4484 5.92886
head -2.62857 7.65371 3.65937
rclavicle -3.57812e-014 -3.97569e-014
rhumerus -33.022 -18.6574 -58.2049
rradius 66.0834
rwrist -34.0205
rhand -28.1575 33.9985
rfingers 7.12502
rthumb -1.53804 4.02433
lclavicle -3.57812e-014 -3.97569e-014
lhumerus 23.1741 10.9229 66.5259
lradius 132.959
lwrist -1.83472
lhand 5.25814 39.2475
lfingers 7.12502
lthumb 30.6162 66.7215
rfemur -17.1413 -22.6758 3.08342
rtibia 44.6611
rfoot -6.55299 -23.5455
rtoes -43.8291
lfemur -30.4125 21.2932 1.21599
ltibia 59.7404
lfoot -14.9682 0.921378
ltoes -29.1305
74
root -7.71355 14.6347 -6.37118 14.7022 -22.8352 -3.03775
lowerback 24.9439 -0.413315 -3.90291
upperback 5.95726 -1.80031 -2.08934
thorax -7.21948 -0.858261 0.496634
lowerneck -13.3343 8.55242 -11.1069
upperneck -10.717 13.2799 6.84759
head -2.30684 7.05408 3.96385
rclavicle 7.31528e-014 -4.6118e-014
rhumerus -31.9336 -19.7343 -58.5349
rradius 67.0642
rwrist -34.8967
rhand -28.2838 35.0381
rfingers 7.12502
rthumb -1.66003 5.06483
lclavicle 7.31528e-014 -4.6118e-014
lhumerus 22.5689 3.89735 65.2286
lradius 131.251
lwrist -3.5229
lhand -1.94058 38.4497
lfingers 7.12502
lthumb 23.7304 67.0046
rfemur -15.3607 -21.2725 2.50378
rtibia 43.3947
rfoot -5.23053 -25.5334
rtoes -41.6386
lfemur -30.8135 22.6576 -0.465737
ltibia 58.7555
lfoot -17.1751 0.894403
ltoes -36.9588
75
root -7.4766 14.6484 -6.22932 15.2299 -19.6867 -3.1303
lowerback 24.8108 -0.6112 -3.79139
upperback 5.80135 -1.98689 -1.87577
thorax -7.31371 -0.936628 0.721314
lowerneck -13.4751 7.6279 -10.8949
upperneck -10.2739 12.0618 7.72959
head -2.0659 6.43249 4.24086
rclavicle 7.95139e-015 -6.36111e-015
rhumerus -30.8307 -20.5614 -58.8734
rradius 67.9487
rwrist -35.2219
rhand -28.533 36.6668
rfingers 7.12502
rthumb -1.90065 6.69557
lclavicle 7.95139e-015 -6.36111e-015
lhumerus 21.8834 -2.39134 64.3406
lradius 129.117
lwrist -3.95391
lhand -7.47107 37.1661
lfingers 7.12502
lthumb 18.4177 66.3142
rfemur -13.91 -19.7001 2.39922
rtibia 42.2046
rfoot -3.64519 -27.8939
rtoes -38.9785
lfemur -31.3248 23.9146 -1.94421
ltibia 57.8821
lfoot -19.3402 1.04713
ltoes -39.3382
